<svg width="144" height="32" viewBox="0 0 144 32" fill="none" xmlns="http://www.w3.org/2000/svg">
<path d="M33.65 10.35C32.2 8.9 30.21 8 28 8C23.58 8 20.01 11.58 20.01 16C20.01 20.42 23.58 24 28 24C31.73 24 34.84 21.45 35.73 18H33.65C32.83 20.33 30.61 22 28 22C24.69 22 22 19.31 22 16C22 12.69 24.69 10 28 10C29.66 10 31.14 10.69 32.22 11.78L29 15H36V8L33.65 10.35Z" fill="#007AFF"/>
<path d="M55.3203 18.0703C55.3203 17.5703 55.1432 17.1849 54.7891 16.9141C54.4401 16.6432 53.8073 16.3698 52.8906 16.0938C51.974 15.8177 51.2448 15.5104 50.7031 15.1719C49.6667 14.5208 49.1484 13.6719 49.1484 12.625C49.1484 11.7083 49.5208 10.9531 50.2656 10.3594C51.0156 9.76562 51.987 9.46875 53.1797 9.46875C53.9714 9.46875 54.6771 9.61458 55.2969 9.90625C55.9167 10.1979 56.4036 10.6146 56.7578 11.1562C57.112 11.6927 57.2891 12.2891 57.2891 12.9453H55.3203C55.3203 12.3516 55.1328 11.888 54.7578 11.5547C54.388 11.2161 53.8568 11.0469 53.1641 11.0469C52.5182 11.0469 52.0156 11.1849 51.6562 11.4609C51.3021 11.737 51.125 12.1224 51.125 12.6172C51.125 13.0339 51.3177 13.3828 51.7031 13.6641C52.0885 13.9401 52.724 14.2109 53.6094 14.4766C54.4948 14.737 55.2057 15.0365 55.7422 15.375C56.2786 15.7083 56.6719 16.0938 56.9219 16.5312C57.1719 16.9635 57.2969 17.4714 57.2969 18.0547C57.2969 19.0026 56.9323 19.7578 56.2031 20.3203C55.4792 20.8776 54.4948 21.1562 53.25 21.1562C52.4271 21.1562 51.6693 21.0052 50.9766 20.7031C50.2891 20.3958 49.7526 19.974 49.3672 19.4375C48.987 18.901 48.7969 18.276 48.7969 17.5625H50.7734C50.7734 18.2083 50.987 18.7083 51.4141 19.0625C51.8411 19.4167 52.4531 19.5938 53.25 19.5938C53.9375 19.5938 54.4531 19.4557 54.7969 19.1797C55.1458 18.8984 55.3203 18.5286 55.3203 18.0703ZM62.5703 21.1562C61.3672 21.1562 60.3906 20.7786 59.6406 20.0234C58.8958 19.263 58.5234 18.2526 58.5234 16.9922V16.7578C58.5234 15.9141 58.6849 15.1615 59.0078 14.5C59.3359 13.8333 59.7943 13.3151 60.3828 12.9453C60.9714 12.5755 61.6276 12.3906 62.3516 12.3906C63.5026 12.3906 64.3906 12.7578 65.0156 13.4922C65.6458 14.2266 65.9609 15.2656 65.9609 16.6094V17.375H60.4375C60.4948 18.0729 60.7266 18.625 61.1328 19.0312C61.5443 19.4375 62.0599 19.6406 62.6797 19.6406C63.5495 19.6406 64.2578 19.2891 64.8047 18.5859L65.8281 19.5625C65.4896 20.0677 65.0365 20.4609 64.4688 20.7422C63.9062 21.0182 63.2734 21.1562 62.5703 21.1562ZM62.3438 13.9141C61.8229 13.9141 61.401 14.0964 61.0781 14.4609C60.7604 14.8255 60.5573 15.3333 60.4688 15.9844H64.0859V15.8438C64.0443 15.2083 63.875 14.7292 63.5781 14.4062C63.2812 14.0781 62.8698 13.9141 62.3438 13.9141ZM69.2031 12.5469L69.2578 13.5234C69.8828 12.7682 70.7031 12.3906 71.7188 12.3906C73.4792 12.3906 74.375 13.3984 74.4062 15.4141V21H72.5078V15.5234C72.5078 14.987 72.3906 14.5911 72.1562 14.3359C71.9271 14.0755 71.5495 13.9453 71.0234 13.9453C70.2578 13.9453 69.6875 14.2917 69.3125 14.9844V21H67.4141V12.5469H69.2031ZM75.9922 16.7109C75.9922 15.4089 76.2943 14.3646 76.8984 13.5781C77.5026 12.7865 78.3125 12.3906 79.3281 12.3906C80.224 12.3906 80.9479 12.7031 81.5 13.3281V9H83.3984V21H81.6797L81.5859 20.125C81.0182 20.8125 80.2604 21.1562 79.3125 21.1562C78.3229 21.1562 77.5208 20.7578 76.9062 19.9609C76.2969 19.1641 75.9922 18.0807 75.9922 16.7109ZM77.8906 16.875C77.8906 17.7344 78.0547 18.4062 78.3828 18.8906C78.7161 19.3698 79.1875 19.6094 79.7969 19.6094C80.5729 19.6094 81.1406 19.263 81.5 18.5703V14.9609C81.151 14.2839 80.5885 13.9453 79.8125 13.9453C79.1979 13.9453 78.724 14.1901 78.3906 14.6797C78.0573 15.1641 77.8906 15.8958 77.8906 16.875ZM94.4141 21C94.3307 20.8385 94.2578 20.5755 94.1953 20.2109C93.5911 20.8411 92.8516 21.1562 91.9766 21.1562C91.1276 21.1562 90.4349 20.9141 89.8984 20.4297C89.362 19.9453 89.0938 19.3464 89.0938 18.6328C89.0938 17.7318 89.4271 17.0417 90.0938 16.5625C90.7656 16.0781 91.724 15.8359 92.9688 15.8359H94.1328V15.2812C94.1328 14.8438 94.0104 14.4948 93.7656 14.2344C93.5208 13.9688 93.1484 13.8359 92.6484 13.8359C92.2161 13.8359 91.862 13.9453 91.5859 14.1641C91.3099 14.3776 91.1719 14.651 91.1719 14.9844H89.2734C89.2734 14.5208 89.4271 14.0885 89.7344 13.6875C90.0417 13.2812 90.4583 12.9635 90.9844 12.7344C91.5156 12.5052 92.1068 12.3906 92.7578 12.3906C93.7474 12.3906 94.5365 12.6406 95.125 13.1406C95.7135 13.6354 96.0156 14.3333 96.0312 15.2344V19.0469C96.0312 19.8073 96.138 20.4141 96.3516 20.8672V21H94.4141ZM92.3281 19.6328C92.7031 19.6328 93.0547 19.5417 93.3828 19.3594C93.7161 19.1771 93.9661 18.9323 94.1328 18.625V17.0312H93.1094C92.4062 17.0312 91.8776 17.1536 91.5234 17.3984C91.1693 17.6432 90.9922 17.9896 90.9922 18.4375C90.9922 18.8021 91.112 19.0938 91.3516 19.3125C91.5964 19.526 91.9219 19.6328 92.3281 19.6328ZM97.6875 16.7109C97.6875 15.3984 97.9948 14.3516 98.6094 13.5703C99.2292 12.7839 100.049 12.3906 101.07 12.3906C102.034 12.3906 102.792 12.7266 103.344 13.3984L103.43 12.5469H105.141V20.7422C105.141 21.8516 104.794 22.7266 104.102 23.3672C103.414 24.0078 102.484 24.3281 101.312 24.3281C100.693 24.3281 100.086 24.1979 99.4922 23.9375C98.9036 23.6823 98.4557 23.3464 98.1484 22.9297L99.0469 21.7891C99.6302 22.4818 100.349 22.8281 101.203 22.8281C101.833 22.8281 102.331 22.6562 102.695 22.3125C103.06 21.974 103.242 21.474 103.242 20.8125V20.2422C102.695 20.8516 101.966 21.1562 101.055 21.1562C100.065 21.1562 99.2552 20.763 98.625 19.9766C98 19.1901 97.6875 18.1016 97.6875 16.7109ZM99.5781 16.875C99.5781 17.724 99.75 18.3932 100.094 18.8828C100.443 19.3672 100.924 19.6094 101.539 19.6094C102.305 19.6094 102.872 19.2812 103.242 18.625V14.9062C102.883 14.2656 102.32 13.9453 101.555 13.9453C100.93 13.9453 100.443 14.1927 100.094 14.6875C99.75 15.1823 99.5781 15.9115 99.5781 16.875ZM112.148 21C112.065 20.8385 111.992 20.5755 111.93 20.2109C111.326 20.8411 110.586 21.1562 109.711 21.1562C108.862 21.1562 108.169 20.9141 107.633 20.4297C107.096 19.9453 106.828 19.3464 106.828 18.6328C106.828 17.7318 107.161 17.0417 107.828 16.5625C108.5 16.0781 109.458 15.8359 110.703 15.8359H111.867V15.2812C111.867 14.8438 111.745 14.4948 111.5 14.2344C111.255 13.9688 110.883 13.8359 110.383 13.8359C109.951 13.8359 109.596 13.9453 109.32 14.1641C109.044 14.3776 108.906 14.651 108.906 14.9844H107.008C107.008 14.5208 107.161 14.0885 107.469 13.6875C107.776 13.2812 108.193 12.9635 108.719 12.7344C109.25 12.5052 109.841 12.3906 110.492 12.3906C111.482 12.3906 112.271 12.6406 112.859 13.1406C113.448 13.6354 113.75 14.3333 113.766 15.2344V19.0469C113.766 19.8073 113.872 20.4141 114.086 20.8672V21H112.148ZM110.062 19.6328C110.438 19.6328 110.789 19.5417 111.117 19.3594C111.451 19.1771 111.701 18.9323 111.867 18.625V17.0312H110.844C110.141 17.0312 109.612 17.1536 109.258 17.3984C108.904 17.6432 108.727 17.9896 108.727 18.4375C108.727 18.8021 108.846 19.0938 109.086 19.3125C109.331 19.526 109.656 19.6328 110.062 19.6328ZM117.773 21H115.875V12.5469H117.773V21ZM115.758 10.3516C115.758 10.0599 115.849 9.81771 116.031 9.625C116.219 9.43229 116.484 9.33594 116.828 9.33594C117.172 9.33594 117.438 9.43229 117.625 9.625C117.812 9.81771 117.906 10.0599 117.906 10.3516C117.906 10.638 117.812 10.8776 117.625 11.0703C117.438 11.2578 117.172 11.3516 116.828 11.3516C116.484 11.3516 116.219 11.2578 116.031 11.0703C115.849 10.8776 115.758 10.638 115.758 10.3516ZM121.609 12.5469L121.664 13.5234C122.289 12.7682 123.109 12.3906 124.125 12.3906C125.885 12.3906 126.781 13.3984 126.812 15.4141V21H124.914V15.5234C124.914 14.987 124.797 14.5911 124.562 14.3359C124.333 14.0755 123.956 13.9453 123.43 13.9453C122.664 13.9453 122.094 14.2917 121.719 14.9844V21H119.82V12.5469H121.609Z" fill="#007AFF"/>
</svg>